<svg xmlns="http://www.w3.org/2000/svg" version="1.1" xmlns:xlink="http://www.w3.org/1999/xlink" xmlns:svgjs="http://svgjs.dev/svgjs" width="720" height="1280" preserveAspectRatio="none" viewBox="0 0 720 1280"><g mask="url(&quot;#SvgjsMask5072&quot;)" fill="none"><rect width="720" height="1280" x="0" y="0" fill="url(&quot;#SvgjsRadialGradient5073&quot;)"></rect><use xlink:href="#SvgjsSymbol5080" x="0" y="0"></use><use xlink:href="#SvgjsSymbol5080" x="0" y="720"></use></g><defs><mask id="SvgjsMask5072"><rect width="720" height="1280" fill="#ffffff"></rect></mask><radialGradient cx="50%" cy="0%" r="1329.66" gradientUnits="userSpaceOnUse" id="SvgjsRadialGradient5073"><stop stop-color="rgba(14, 42, 71, 1)" offset="0.1"></stop><stop stop-color="rgba(0, 52, 119, 1)" offset="0.9"></stop></radialGradient><path d="M-1 0 a1 1 0 1 0 2 0 a1 1 0 1 0 -2 0z" id="SvgjsPath5077"></path><path d="M-3 0 a3 3 0 1 0 6 0 a3 3 0 1 0 -6 0z" id="SvgjsPath5078"></path><path d="M-5 0 a5 5 0 1 0 10 0 a5 5 0 1 0 -10 0z" id="SvgjsPath5075"></path><path d="M2 -2 L-2 2z" id="SvgjsPath5076"></path><path d="M6 -6 L-6 6z" id="SvgjsPath5074"></path><path d="M30 -30 L-30 30z" id="SvgjsPath5079"></path></defs><symbol id="SvgjsSymbol5080"><use xlink:href="#SvgjsPath5074" x="30" y="30" stroke="rgba(3, 93, 189, 1)"></use><use xlink:href="#SvgjsPath5074" x="30" y="90" stroke="rgba(3, 93, 189, 1)"></use><use xlink:href="#SvgjsPath5075" x="30" y="150" stroke="rgba(3, 93, 189, 1)"></use><use xlink:href="#SvgjsPath5076" x="30" y="210" stroke="rgba(3, 93, 189, 1)"></use><use xlink:href="#SvgjsPath5077" x="30" y="270" stroke="rgba(3, 93, 189, 1)"></use><use xlink:href="#SvgjsPath5075" x="30" y="330" stroke="rgba(3, 93, 189, 1)"></use><use xlink:href="#SvgjsPath5074" x="30" y="390" stroke="rgba(3, 93, 189, 1)"></use><use xlink:href="#SvgjsPath5077" x="30" y="450" stroke="rgba(3, 93, 189, 1)"></use><use xlink:href="#SvgjsPath5075" x="30" y="510" stroke="rgba(3, 93, 189, 1)"></use><use xlink:href="#SvgjsPath5078" x="30" y="570" stroke="rgba(3, 93, 189, 1)"></use><use xlink:href="#SvgjsPath5075" x="30" y="630" stroke="rgba(3, 93, 189, 1)"></use><use xlink:href="#SvgjsPath5076" x="30" y="690" stroke="rgba(3, 93, 189, 1)"></use><use xlink:href="#SvgjsPath5074" x="90" y="30" stroke="rgba(3, 93, 189, 1)"></use><use xlink:href="#SvgjsPath5078" x="90" y="90" stroke="rgba(3, 93, 189, 1)"></use><use xlink:href="#SvgjsPath5077" x="90" y="150" stroke="rgba(3, 93, 189, 1)"></use><use xlink:href="#SvgjsPath5074" x="90" y="210" stroke="rgba(3, 93, 189, 1)"></use><use xlink:href="#SvgjsPath5077" x="90" y="270" stroke="rgba(3, 93, 189, 1)"></use><use xlink:href="#SvgjsPath5075" x="90" y="330" stroke="rgba(3, 93, 189, 1)"></use><use xlink:href="#SvgjsPath5074" x="90" y="390" stroke="rgba(3, 93, 189, 1)"></use><use xlink:href="#SvgjsPath5075" x="90" y="450" stroke="rgba(3, 93, 189, 1)"></use><use xlink:href="#SvgjsPath5075" x="90" y="510" stroke="rgba(3, 93, 189, 1)"></use><use xlink:href="#SvgjsPath5074" x="90" y="570" stroke="rgba(3, 93, 189, 1)"></use><use xlink:href="#SvgjsPath5075" x="90" y="630" stroke="rgba(3, 93, 189, 1)"></use><use xlink:href="#SvgjsPath5076" x="90" y="690" stroke="rgba(3, 93, 189, 1)"></use><use xlink:href="#SvgjsPath5074" x="150" y="30" stroke="rgba(3, 93, 189, 1)"></use><use xlink:href="#SvgjsPath5078" x="150" y="90" stroke="rgba(3, 93, 189, 1)"></use><use xlink:href="#SvgjsPath5079" x="150" y="150" stroke="rgba(3, 93, 189, 1)" stroke-width="3"></use><use xlink:href="#SvgjsPath5078" x="150" y="210" stroke="rgba(3, 93, 189, 1)"></use><use xlink:href="#SvgjsPath5077" x="150" y="270" stroke="rgba(3, 93, 189, 1)"></use><use xlink:href="#SvgjsPath5076" x="150" y="330" stroke="rgba(3, 93, 189, 1)"></use><use xlink:href="#SvgjsPath5076" x="150" y="390" stroke="rgba(3, 93, 189, 1)"></use><use xlink:href="#SvgjsPath5075" x="150" y="450" stroke="rgba(3, 93, 189, 1)"></use><use xlink:href="#SvgjsPath5076" x="150" y="510" stroke="rgba(3, 93, 189, 1)"></use><use xlink:href="#SvgjsPath5074" x="150" y="570" stroke="rgba(3, 93, 189, 1)"></use><use xlink:href="#SvgjsPath5078" x="150" y="630" stroke="rgba(3, 93, 189, 1)"></use><use xlink:href="#SvgjsPath5074" x="150" y="690" stroke="rgba(3, 93, 189, 1)"></use><use xlink:href="#SvgjsPath5076" x="210" y="30" stroke="rgba(3, 93, 189, 1)"></use><use xlink:href="#SvgjsPath5075" x="210" y="90" stroke="rgba(3, 93, 189, 1)"></use><use xlink:href="#SvgjsPath5074" x="210" y="150" stroke="rgba(3, 93, 189, 1)"></use><use xlink:href="#SvgjsPath5074" x="210" y="210" stroke="rgba(3, 93, 189, 1)"></use><use xlink:href="#SvgjsPath5077" x="210" y="270" stroke="rgba(3, 93, 189, 1)"></use><use xlink:href="#SvgjsPath5074" x="210" y="330" stroke="rgba(3, 93, 189, 1)"></use><use xlink:href="#SvgjsPath5077" x="210" y="390" stroke="rgba(3, 93, 189, 1)"></use><use xlink:href="#SvgjsPath5075" x="210" y="450" stroke="rgba(3, 93, 189, 1)"></use><use xlink:href="#SvgjsPath5075" x="210" y="510" stroke="rgba(3, 93, 189, 1)"></use><use xlink:href="#SvgjsPath5074" x="210" y="570" stroke="rgba(3, 93, 189, 1)"></use><use xlink:href="#SvgjsPath5075" x="210" y="630" stroke="rgba(3, 93, 189, 1)"></use><use xlink:href="#SvgjsPath5079" x="210" y="690" stroke="rgba(3, 93, 189, 1)" stroke-width="3"></use><use xlink:href="#SvgjsPath5077" x="270" y="30" stroke="rgba(3, 93, 189, 1)"></use><use xlink:href="#SvgjsPath5074" x="270" y="90" stroke="rgba(3, 93, 189, 1)"></use><use xlink:href="#SvgjsPath5074" x="270" y="150" stroke="rgba(3, 93, 189, 1)"></use><use xlink:href="#SvgjsPath5075" x="270" y="210" stroke="rgba(3, 93, 189, 1)"></use><use xlink:href="#SvgjsPath5078" x="270" y="270" stroke="rgba(3, 93, 189, 1)"></use><use xlink:href="#SvgjsPath5076" x="270" y="330" stroke="rgba(3, 93, 189, 1)"></use><use xlink:href="#SvgjsPath5076" x="270" y="390" stroke="rgba(3, 93, 189, 1)"></use><use xlink:href="#SvgjsPath5076" x="270" y="450" stroke="rgba(3, 93, 189, 1)"></use><use xlink:href="#SvgjsPath5075" x="270" y="510" stroke="rgba(3, 93, 189, 1)"></use><use xlink:href="#SvgjsPath5075" x="270" y="570" stroke="rgba(3, 93, 189, 1)"></use><use xlink:href="#SvgjsPath5075" x="270" y="630" stroke="rgba(3, 93, 189, 1)"></use><use xlink:href="#SvgjsPath5074" x="270" y="690" stroke="rgba(3, 93, 189, 1)"></use><use xlink:href="#SvgjsPath5076" x="330" y="30" stroke="rgba(3, 93, 189, 1)"></use><use xlink:href="#SvgjsPath5075" x="330" y="90" stroke="rgba(3, 93, 189, 1)"></use><use xlink:href="#SvgjsPath5076" x="330" y="150" stroke="rgba(3, 93, 189, 1)"></use><use xlink:href="#SvgjsPath5076" x="330" y="210" stroke="rgba(3, 93, 189, 1)"></use><use xlink:href="#SvgjsPath5074" x="330" y="270" stroke="rgba(3, 93, 189, 1)"></use><use xlink:href="#SvgjsPath5076" x="330" y="330" stroke="rgba(3, 93, 189, 1)"></use><use xlink:href="#SvgjsPath5074" x="330" y="390" stroke="rgba(3, 93, 189, 1)"></use><use xlink:href="#SvgjsPath5074" x="330" y="450" stroke="rgba(3, 93, 189, 1)"></use><use xlink:href="#SvgjsPath5075" x="330" y="510" stroke="rgba(3, 93, 189, 1)"></use><use xlink:href="#SvgjsPath5074" x="330" y="570" stroke="rgba(3, 93, 189, 1)"></use><use xlink:href="#SvgjsPath5077" x="330" y="630" stroke="rgba(3, 93, 189, 1)"></use><use xlink:href="#SvgjsPath5075" x="330" y="690" stroke="rgba(3, 93, 189, 1)"></use><use xlink:href="#SvgjsPath5074" x="390" y="30" stroke="rgba(3, 93, 189, 1)"></use><use xlink:href="#SvgjsPath5074" x="390" y="90" stroke="rgba(3, 93, 189, 1)"></use><use xlink:href="#SvgjsPath5074" x="390" y="150" stroke="rgba(3, 93, 189, 1)"></use><use xlink:href="#SvgjsPath5075" x="390" y="210" stroke="rgba(3, 93, 189, 1)"></use><use xlink:href="#SvgjsPath5074" x="390" y="270" stroke="rgba(3, 93, 189, 1)"></use><use xlink:href="#SvgjsPath5079" x="390" y="330" stroke="rgba(3, 93, 189, 1)" stroke-width="3"></use><use xlink:href="#SvgjsPath5075" x="390" y="390" stroke="rgba(3, 93, 189, 1)"></use><use xlink:href="#SvgjsPath5076" x="390" y="450" stroke="rgba(3, 93, 189, 1)"></use><use xlink:href="#SvgjsPath5075" x="390" y="510" stroke="rgba(3, 93, 189, 1)"></use><use xlink:href="#SvgjsPath5075" x="390" y="570" stroke="rgba(3, 93, 189, 1)"></use><use xlink:href="#SvgjsPath5074" x="390" y="630" stroke="rgba(3, 93, 189, 1)"></use><use xlink:href="#SvgjsPath5074" x="390" y="690" stroke="rgba(3, 93, 189, 1)"></use><use xlink:href="#SvgjsPath5075" x="450" y="30" stroke="rgba(3, 93, 189, 1)"></use><use xlink:href="#SvgjsPath5074" x="450" y="90" stroke="rgba(3, 93, 189, 1)"></use><use xlink:href="#SvgjsPath5078" x="450" y="150" stroke="rgba(3, 93, 189, 1)"></use><use xlink:href="#SvgjsPath5074" x="450" y="210" stroke="rgba(3, 93, 189, 1)"></use><use xlink:href="#SvgjsPath5078" x="450" y="270" stroke="rgba(3, 93, 189, 1)"></use><use xlink:href="#SvgjsPath5074" x="450" y="330" stroke="rgba(3, 93, 189, 1)"></use><use xlink:href="#SvgjsPath5075" x="450" y="390" stroke="rgba(3, 93, 189, 1)"></use><use xlink:href="#SvgjsPath5074" x="450" y="450" stroke="rgba(3, 93, 189, 1)"></use><use xlink:href="#SvgjsPath5074" x="450" y="510" stroke="rgba(3, 93, 189, 1)"></use><use xlink:href="#SvgjsPath5075" x="450" y="570" stroke="rgba(3, 93, 189, 1)"></use><use xlink:href="#SvgjsPath5077" x="450" y="630" stroke="rgba(3, 93, 189, 1)"></use><use xlink:href="#SvgjsPath5077" x="450" y="690" stroke="rgba(3, 93, 189, 1)"></use><use xlink:href="#SvgjsPath5078" x="510" y="30" stroke="rgba(3, 93, 189, 1)"></use><use xlink:href="#SvgjsPath5076" x="510" y="90" stroke="rgba(3, 93, 189, 1)"></use><use xlink:href="#SvgjsPath5077" x="510" y="150" stroke="rgba(3, 93, 189, 1)"></use><use xlink:href="#SvgjsPath5076" x="510" y="210" stroke="rgba(3, 93, 189, 1)"></use><use xlink:href="#SvgjsPath5074" x="510" y="270" stroke="rgba(3, 93, 189, 1)"></use><use xlink:href="#SvgjsPath5078" x="510" y="330" stroke="rgba(3, 93, 189, 1)"></use><use xlink:href="#SvgjsPath5075" x="510" y="390" stroke="rgba(3, 93, 189, 1)"></use><use xlink:href="#SvgjsPath5074" x="510" y="450" stroke="rgba(3, 93, 189, 1)"></use><use xlink:href="#SvgjsPath5079" x="510" y="510" stroke="rgba(3, 93, 189, 1)" stroke-width="3"></use><use xlink:href="#SvgjsPath5076" x="510" y="570" stroke="rgba(3, 93, 189, 1)"></use><use xlink:href="#SvgjsPath5074" x="510" y="630" stroke="rgba(3, 93, 189, 1)"></use><use xlink:href="#SvgjsPath5074" x="510" y="690" stroke="rgba(3, 93, 189, 1)"></use><use xlink:href="#SvgjsPath5075" x="570" y="30" stroke="rgba(3, 93, 189, 1)"></use><use xlink:href="#SvgjsPath5074" x="570" y="90" stroke="rgba(3, 93, 189, 1)"></use><use xlink:href="#SvgjsPath5074" x="570" y="150" stroke="rgba(3, 93, 189, 1)"></use><use xlink:href="#SvgjsPath5075" x="570" y="210" stroke="rgba(3, 93, 189, 1)"></use><use xlink:href="#SvgjsPath5075" x="570" y="270" stroke="rgba(3, 93, 189, 1)"></use><use xlink:href="#SvgjsPath5074" x="570" y="330" stroke="rgba(3, 93, 189, 1)"></use><use xlink:href="#SvgjsPath5074" x="570" y="390" stroke="rgba(3, 93, 189, 1)"></use><use xlink:href="#SvgjsPath5074" x="570" y="450" stroke="rgba(3, 93, 189, 1)"></use><use xlink:href="#SvgjsPath5075" x="570" y="510" stroke="rgba(3, 93, 189, 1)"></use><use xlink:href="#SvgjsPath5074" x="570" y="570" stroke="rgba(3, 93, 189, 1)"></use><use xlink:href="#SvgjsPath5075" x="570" y="630" stroke="rgba(3, 93, 189, 1)"></use><use xlink:href="#SvgjsPath5075" x="570" y="690" stroke="rgba(3, 93, 189, 1)"></use><use xlink:href="#SvgjsPath5075" x="630" y="30" stroke="rgba(3, 93, 189, 1)"></use><use xlink:href="#SvgjsPath5075" x="630" y="90" stroke="rgba(3, 93, 189, 1)"></use><use xlink:href="#SvgjsPath5074" x="630" y="150" stroke="rgba(3, 93, 189, 1)"></use><use xlink:href="#SvgjsPath5075" x="630" y="210" stroke="rgba(3, 93, 189, 1)"></use><use xlink:href="#SvgjsPath5078" x="630" y="270" stroke="rgba(3, 93, 189, 1)"></use><use xlink:href="#SvgjsPath5078" x="630" y="330" stroke="rgba(3, 93, 189, 1)"></use><use xlink:href="#SvgjsPath5075" x="630" y="390" stroke="rgba(3, 93, 189, 1)"></use><use xlink:href="#SvgjsPath5074" x="630" y="450" stroke="rgba(3, 93, 189, 1)"></use><use xlink:href="#SvgjsPath5075" x="630" y="510" stroke="rgba(3, 93, 189, 1)"></use><use xlink:href="#SvgjsPath5077" x="630" y="570" stroke="rgba(3, 93, 189, 1)"></use><use xlink:href="#SvgjsPath5076" x="630" y="630" stroke="rgba(3, 93, 189, 1)"></use><use xlink:href="#SvgjsPath5078" x="630" y="690" stroke="rgba(3, 93, 189, 1)"></use><use xlink:href="#SvgjsPath5075" x="690" y="30" stroke="rgba(3, 93, 189, 1)"></use><use xlink:href="#SvgjsPath5077" x="690" y="90" stroke="rgba(3, 93, 189, 1)"></use><use xlink:href="#SvgjsPath5075" x="690" y="150" stroke="rgba(3, 93, 189, 1)"></use><use xlink:href="#SvgjsPath5078" x="690" y="210" stroke="rgba(3, 93, 189, 1)"></use><use xlink:href="#SvgjsPath5075" x="690" y="270" stroke="rgba(3, 93, 189, 1)"></use><use xlink:href="#SvgjsPath5075" x="690" y="330" stroke="rgba(3, 93, 189, 1)"></use><use xlink:href="#SvgjsPath5074" x="690" y="390" stroke="rgba(3, 93, 189, 1)"></use><use xlink:href="#SvgjsPath5074" x="690" y="450" stroke="rgba(3, 93, 189, 1)"></use><use xlink:href="#SvgjsPath5077" x="690" y="510" stroke="rgba(3, 93, 189, 1)"></use><use xlink:href="#SvgjsPath5079" x="690" y="570" stroke="rgba(3, 93, 189, 1)" stroke-width="3"></use><use xlink:href="#SvgjsPath5074" x="690" y="630" stroke="rgba(3, 93, 189, 1)"></use><use xlink:href="#SvgjsPath5074" x="690" y="690" stroke="rgba(3, 93, 189, 1)"></use></symbol></svg>