<svg xmlns="http://www.w3.org/2000/svg" version="1.1" xmlns:xlink="http://www.w3.org/1999/xlink" xmlns:svgjs="http://svgjs.dev/svgjs" width="720" height="1280" preserveAspectRatio="none" viewBox="0 0 720 1280"><g mask="url(&quot;#SvgjsMask1648&quot;)" fill="none"><rect width="720" height="1280" x="0" y="0" fill="rgba(0, 0, 0, 1)"></rect><use xlink:href="#SvgjsG1655" transform="translate(0, 0)" fill="#0f457b"></use><use xlink:href="#SvgjsG1655" transform="translate(0, 240)" fill="#0f457b"></use><use xlink:href="#SvgjsG1655" transform="translate(0, 480)" fill="#0f457b"></use><use xlink:href="#SvgjsG1655" transform="translate(0, 720)" fill="#0f457b"></use><use xlink:href="#SvgjsG1655" transform="translate(0, 960)" fill="#0f457b"></use><use xlink:href="#SvgjsG1655" transform="translate(0, 1200)" fill="#0f457b"></use><use xlink:href="#SvgjsG1655" transform="translate(240, 0)" fill="#0f457b"></use><use xlink:href="#SvgjsG1655" transform="translate(240, 240)" fill="#0f457b"></use><use xlink:href="#SvgjsG1655" transform="translate(240, 480)" fill="#0f457b"></use><use xlink:href="#SvgjsG1655" transform="translate(240, 720)" fill="#0f457b"></use><use xlink:href="#SvgjsG1655" transform="translate(240, 960)" fill="#0f457b"></use><use xlink:href="#SvgjsG1655" transform="translate(240, 1200)" fill="#0f457b"></use><use xlink:href="#SvgjsG1655" transform="translate(480, 0)" fill="#0f457b"></use><use xlink:href="#SvgjsG1655" transform="translate(480, 240)" fill="#0f457b"></use><use xlink:href="#SvgjsG1655" transform="translate(480, 480)" fill="#0f457b"></use><use xlink:href="#SvgjsG1655" transform="translate(480, 720)" fill="#0f457b"></use><use xlink:href="#SvgjsG1655" transform="translate(480, 960)" fill="#0f457b"></use><use xlink:href="#SvgjsG1655" transform="translate(480, 1200)" fill="#0f457b"></use></g><defs><mask id="SvgjsMask1648"><rect width="720" height="1280" fill="#ffffff"></rect></mask><g id="SvgjsG1651"><path d="M2.524 8.637H0.014V7.308h2.51v1.329zM3.656 4.576L1.884 2.804l0.935-0.935 1.772 1.772-0.935 0.935z m0 6.817l0.935 0.935-1.772 1.773-0.934-0.936 1.771-1.772z m4.997-8.884h-1.33V-0.002h1.33v2.511z m-1.33 10.952h1.33v2.51h-1.33v-2.509zM12.344 4.576l-0.96-0.935 1.796-1.772 0.935 0.935-1.772 1.772z m0 6.792l1.771 1.797-0.935 0.936-1.771-1.774 0.936-0.96z m3.643-4.06v1.329h-2.51V7.308h2.509z"></path><path d="M3.702 7.984a4.184 4.184 0 1 0 8.368 0 4.184 4.184 0 1 0-8.368 0"></path></g><g id="SvgjsG1650"><path d="M3.236 14.219c1.457 0 2.639-1.182 2.639-2.641 0-1.454-1.182-2.637-2.639-2.637-1.453 0-2.636 1.182-2.636 2.638 0 1.459 1.182 2.641 2.636 2.642zM0 11.578c0-1.787 1.452-3.234 3.236-3.234 1.789 0 3.239 1.446 3.239 3.234 0 1.79-1.45 3.237-3.239 3.237C1.452 14.815 0 13.367 0 11.578z m12.764 2.671c1.453 0 2.636-1.18 2.636-2.639 0-1.457-1.182-2.637-2.636-2.637-1.457 0-2.639 1.181-2.639 2.638 0 1.459 1.182 2.64 2.639 2.64zM9.525 11.61c0-1.789 1.452-3.236 3.239-3.236 1.784 0 3.236 1.446 3.236 3.236s-1.452 3.237-3.236 3.237c-1.788 0-3.239-1.448-3.239-3.237z m0.009-7.898c0.672 0 1.218-0.542 1.218-1.214S10.206 1.28 9.534 1.28s-1.218 0.546-1.218 1.218 0.546 1.214 1.218 1.214z"></path><path d="M9.584 6.666c-0.176 0.004-0.366-0.084-0.506-0.306l-0.791-1.235-1.631 1.614 1.513 0.795c0.622 0.298 0.528 0.844 0.528 0.844v3.424c0 0.388-0.312 0.704-0.701 0.704s-0.701-0.316-0.7-0.704V9.062l-2.623-1.457a1.02 1.02 0 0 1-0.525-0.889 1.003 1.003 0 0 1 0.262-0.683l2.573-2.577c0.32-0.362 0.765-0.304 0.765-0.304 0.539 0 0.823 0.47 0.823 0.47l1.337 2.095 2.03-0.004c0.729 0 0.729 0.952 0 0.952h-2.353z"></path></g><g id="SvgjsG1649"><path d="M1.507 0.867v14.666h12.877V0.867h-12.878z m3.76 12.876H3.087V11.564H5.267v2.179z m0-3.328H3.087V8.236H5.267v2.179z m3.768 3.328H6.856V11.564h2.179v2.179z m0-3.328H6.856V8.236h2.179v2.179z m3.775 3.328H10.631v-5.507h2.179v5.507z m0.08-7.65h-9.78V2.602h9.78V6.093z"></path></g><g id="SvgjsG1652"><path d="M13.031 12.687V1.875H9.957L9.97 0.071C9.957 0.078 4.189 2.651 4.189 2.651 3.256 3.097 2.919 3.747 2.919 4.632V13.347c0 1.389 1.116 2.528 2.401 2.528h7.737V14.275c-0.948-0.116-0.948-1.469-0.026-1.588z m-7.749 1.422c-0.848-0.005-0.844-1.194 0-1.194h5.399c-0.375 0.278-0.351 0.936 0.051 1.195H5.282z m6.021-2.884H6.577l3.38-1.524V3.628h1.347v7.597h-0.001z" fill-rule="evenodd"></path></g><g id="SvgjsG1653"><path d="M3.394 6.906c0.819-0.002 1.483-0.667 1.487-1.488-0.004-0.821-0.669-1.486-1.487-1.487a1.485 1.485 0 0 0-1.487 1.487c-0.001 0.82 0.664 1.485 1.487 1.487z"></path><path d="M4.981 5.765v1.286H2.7c-1.103 0.008-1.105 1.425 0 1.423h2.993c0.438 0.002 0.711-0.351 0.712-0.748V5.765c0-1.072-1.421-1.072-1.424 0z m1.615-0.766H12.536c0.875-0.002 1.388 0.559 1.386 1.313v2.144H6.596V4.999z"></path><path d="M1.624 3.758c-0.002-1.17-1.625-1.17-1.624 0V13.137h1.66V10.719H14.287v2.4h1.615V5.875c0.004-1.234-1.637-1.234-1.633 0v2.891H1.624V3.758z"></path></g><g id="SvgjsG1654"><path d="M12.865 12.36c-3.667 0-6.639-2.973-6.639-6.639 0-2.102 0.978-3.975 2.503-5.192-3.976 0.149-7.153 3.416-7.153 7.428 0 4.106 3.328 7.434 7.435 7.434 2.66 0 4.993-1.399 6.308-3.502a6.601 6.601 0 0 1-2.455 0.471z"></path></g><g id="SvgjsG1655"><use xlink:href="#SvgjsG1649" transform="translate(0, 0)" fill="#0f457b"></use><use xlink:href="#SvgjsG1650" transform="translate(0, 24)" fill="#0f457b"></use><use xlink:href="#SvgjsG1651" transform="translate(0, 48)" fill="#0f457b"></use><use xlink:href="#SvgjsG1652" transform="translate(0, 72)" fill="#0f457b"></use><use xlink:href="#SvgjsG1652" transform="translate(0, 96)" fill="#0f457b"></use><use xlink:href="#SvgjsG1649" transform="translate(0, 120)" fill="#0f457b"></use><use xlink:href="#SvgjsG1653" transform="translate(0, 144)" fill="#0f457b"></use><use xlink:href="#SvgjsG1653" transform="translate(0, 168)" fill="#0f457b"></use><use xlink:href="#SvgjsG1650" transform="translate(0, 192)" fill="#0f457b"></use><use xlink:href="#SvgjsG1653" transform="translate(0, 216)" fill="#0f457b"></use><use xlink:href="#SvgjsG1651" transform="translate(24, 0)" fill="#0f457b"></use><use xlink:href="#SvgjsG1653" transform="translate(24, 24)" fill="#0f457b"></use><use xlink:href="#SvgjsG1651" transform="translate(24, 48)" fill="#0f457b"></use><use xlink:href="#SvgjsG1654" transform="translate(24, 72)" fill="#0f457b"></use><use xlink:href="#SvgjsG1652" transform="translate(24, 96)" fill="#0f457b"></use><use xlink:href="#SvgjsG1650" transform="translate(24, 120)" fill="#0f457b"></use><use xlink:href="#SvgjsG1649" transform="translate(24, 144)" fill="#0f457b"></use><use xlink:href="#SvgjsG1650" transform="translate(24, 168)" fill="#0f457b"></use><use xlink:href="#SvgjsG1652" transform="translate(24, 192)" fill="#0f457b"></use><use xlink:href="#SvgjsG1650" transform="translate(24, 216)" fill="#0f457b"></use><use xlink:href="#SvgjsG1650" transform="translate(48, 0)" fill="#0f457b"></use><use xlink:href="#SvgjsG1650" transform="translate(48, 24)" fill="#0f457b"></use><use xlink:href="#SvgjsG1649" transform="translate(48, 48)" fill="#0f457b"></use><use xlink:href="#SvgjsG1653" transform="translate(48, 72)" fill="#0f457b"></use><use xlink:href="#SvgjsG1650" transform="translate(48, 96)" fill="#0f457b"></use><use xlink:href="#SvgjsG1654" transform="translate(48, 120)" fill="#0f457b"></use><use xlink:href="#SvgjsG1650" transform="translate(48, 144)" fill="#0f457b"></use><use xlink:href="#SvgjsG1650" transform="translate(48, 168)" fill="#0f457b"></use><use xlink:href="#SvgjsG1649" transform="translate(48, 192)" fill="#0f457b"></use><use xlink:href="#SvgjsG1652" transform="translate(48, 216)" fill="#0f457b"></use><use xlink:href="#SvgjsG1651" transform="translate(72, 0)" fill="#0f457b"></use><use xlink:href="#SvgjsG1654" transform="translate(72, 24)" fill="#0f457b"></use><use xlink:href="#SvgjsG1649" transform="translate(72, 48)" fill="#0f457b"></use><use xlink:href="#SvgjsG1650" transform="translate(72, 72)" fill="#0f457b"></use><use xlink:href="#SvgjsG1651" transform="translate(72, 96)" fill="#0f457b"></use><use xlink:href="#SvgjsG1650" transform="translate(72, 120)" fill="#0f457b"></use><use xlink:href="#SvgjsG1649" transform="translate(72, 144)" fill="#0f457b"></use><use xlink:href="#SvgjsG1652" transform="translate(72, 168)" fill="#0f457b"></use><use xlink:href="#SvgjsG1654" transform="translate(72, 192)" fill="#0f457b"></use><use xlink:href="#SvgjsG1651" transform="translate(72, 216)" fill="#0f457b"></use><use xlink:href="#SvgjsG1651" transform="translate(96, 0)" fill="#0f457b"></use><use xlink:href="#SvgjsG1652" transform="translate(96, 24)" fill="#0f457b"></use><use xlink:href="#SvgjsG1650" transform="translate(96, 48)" fill="#0f457b"></use><use xlink:href="#SvgjsG1649" transform="translate(96, 72)" fill="#0f457b"></use><use xlink:href="#SvgjsG1650" transform="translate(96, 96)" fill="#0f457b"></use><use xlink:href="#SvgjsG1649" transform="translate(96, 120)" fill="#0f457b"></use><use xlink:href="#SvgjsG1654" transform="translate(96, 144)" fill="#0f457b"></use><use xlink:href="#SvgjsG1649" transform="translate(96, 168)" fill="#0f457b"></use><use xlink:href="#SvgjsG1651" transform="translate(96, 192)" fill="#0f457b"></use><use xlink:href="#SvgjsG1651" transform="translate(96, 216)" fill="#0f457b"></use><use xlink:href="#SvgjsG1650" transform="translate(120, 0)" fill="#0f457b"></use><use xlink:href="#SvgjsG1652" transform="translate(120, 24)" fill="#0f457b"></use><use xlink:href="#SvgjsG1654" transform="translate(120, 48)" fill="#0f457b"></use><use xlink:href="#SvgjsG1650" transform="translate(120, 72)" fill="#0f457b"></use><use xlink:href="#SvgjsG1653" transform="translate(120, 96)" fill="#0f457b"></use><use xlink:href="#SvgjsG1652" transform="translate(120, 120)" fill="#0f457b"></use><use xlink:href="#SvgjsG1649" transform="translate(120, 144)" fill="#0f457b"></use><use xlink:href="#SvgjsG1649" transform="translate(120, 168)" fill="#0f457b"></use><use xlink:href="#SvgjsG1650" transform="translate(120, 192)" fill="#0f457b"></use><use xlink:href="#SvgjsG1653" transform="translate(120, 216)" fill="#0f457b"></use><use xlink:href="#SvgjsG1652" transform="translate(144, 0)" fill="#0f457b"></use><use xlink:href="#SvgjsG1650" transform="translate(144, 24)" fill="#0f457b"></use><use xlink:href="#SvgjsG1651" transform="translate(144, 48)" fill="#0f457b"></use><use xlink:href="#SvgjsG1653" transform="translate(144, 72)" fill="#0f457b"></use><use xlink:href="#SvgjsG1654" transform="translate(144, 96)" fill="#0f457b"></use><use xlink:href="#SvgjsG1652" transform="translate(144, 120)" fill="#0f457b"></use><use xlink:href="#SvgjsG1650" transform="translate(144, 144)" fill="#0f457b"></use><use xlink:href="#SvgjsG1650" transform="translate(144, 168)" fill="#0f457b"></use><use xlink:href="#SvgjsG1651" transform="translate(144, 192)" fill="#0f457b"></use><use xlink:href="#SvgjsG1653" transform="translate(144, 216)" fill="#0f457b"></use><use xlink:href="#SvgjsG1653" transform="translate(168, 0)" fill="#0f457b"></use><use xlink:href="#SvgjsG1649" transform="translate(168, 24)" fill="#0f457b"></use><use xlink:href="#SvgjsG1651" transform="translate(168, 48)" fill="#0f457b"></use><use xlink:href="#SvgjsG1653" transform="translate(168, 72)" fill="#0f457b"></use><use xlink:href="#SvgjsG1649" transform="translate(168, 96)" fill="#0f457b"></use><use xlink:href="#SvgjsG1654" transform="translate(168, 120)" fill="#0f457b"></use><use xlink:href="#SvgjsG1649" transform="translate(168, 144)" fill="#0f457b"></use><use xlink:href="#SvgjsG1652" transform="translate(168, 168)" fill="#0f457b"></use><use xlink:href="#SvgjsG1654" transform="translate(168, 192)" fill="#0f457b"></use><use xlink:href="#SvgjsG1654" transform="translate(168, 216)" fill="#0f457b"></use><use xlink:href="#SvgjsG1653" transform="translate(192, 0)" fill="#0f457b"></use><use xlink:href="#SvgjsG1653" transform="translate(192, 24)" fill="#0f457b"></use><use xlink:href="#SvgjsG1651" transform="translate(192, 48)" fill="#0f457b"></use><use xlink:href="#SvgjsG1651" transform="translate(192, 72)" fill="#0f457b"></use><use xlink:href="#SvgjsG1652" transform="translate(192, 96)" fill="#0f457b"></use><use xlink:href="#SvgjsG1654" transform="translate(192, 120)" fill="#0f457b"></use><use xlink:href="#SvgjsG1649" transform="translate(192, 144)" fill="#0f457b"></use><use xlink:href="#SvgjsG1650" transform="translate(192, 168)" fill="#0f457b"></use><use xlink:href="#SvgjsG1652" transform="translate(192, 192)" fill="#0f457b"></use><use xlink:href="#SvgjsG1652" transform="translate(192, 216)" fill="#0f457b"></use><use xlink:href="#SvgjsG1649" transform="translate(216, 0)" fill="#0f457b"></use><use xlink:href="#SvgjsG1650" transform="translate(216, 24)" fill="#0f457b"></use><use xlink:href="#SvgjsG1654" transform="translate(216, 48)" fill="#0f457b"></use><use xlink:href="#SvgjsG1654" transform="translate(216, 72)" fill="#0f457b"></use><use xlink:href="#SvgjsG1654" transform="translate(216, 96)" fill="#0f457b"></use><use xlink:href="#SvgjsG1649" transform="translate(216, 120)" fill="#0f457b"></use><use xlink:href="#SvgjsG1653" transform="translate(216, 144)" fill="#0f457b"></use><use xlink:href="#SvgjsG1653" transform="translate(216, 168)" fill="#0f457b"></use><use xlink:href="#SvgjsG1654" transform="translate(216, 192)" fill="#0f457b"></use><use xlink:href="#SvgjsG1650" transform="translate(216, 216)" fill="#0f457b"></use></g></defs></svg>